<svg xmlns="http://www.w3.org/2000/svg" xmlns:xlink="http://www.w3.org/1999/xlink" contentStyleType="text/css" height="752px" preserveAspectRatio="none" style="width:918px;height:752px;background:#F7F7F7;" version="1.1" viewBox="0 0 918 752" width="918px" zoomAndPan="magnify"><title>Auto Classification Process</title><defs/><g><rect fill="#F7F7F7" height="752" style="stroke:none;stroke-width:1.0;" width="918" x="0" y="0"/><rect fill="none" height="750.125" style="stroke:#8FBC8F;stroke-width:1.0;" width="916.8496" x="0" y="0"/><rect fill="#2E8B57" height="35.1563" id="_title" style="stroke:#2E8B57;stroke-width:0.0;" width="284.5215" x="315.6641" y="15"/><text fill="#FFFFFF" font-family="Helvetica" font-size="20" font-weight="bold" lengthAdjust="spacing" textLength="264.5215" x="325.6641" y="40.7617">Auto Classification Process</text><rect fill="#FFFFFF" height="51.2188" style="stroke:#DCDCDC;stroke-width:1.0;" width="177.7373" x="190" y="195.375"/><rect fill="#FFFFFF" height="51.2188" style="stroke:#DCDCDC;stroke-width:1.0;" width="355.8984" x="282.5791" y="260.5938"/><rect fill="#FFFFFF" height="146.0469" style="stroke:#DCDCDC;stroke-width:1.0;" width="444.2705" x="282.5791" y="325.8125"/><rect fill="#FFFFFF" height="127.4375" style="stroke:#DCDCDC;stroke-width:1.0;" width="295.54" x="282.5791" y="485.8594"/><rect fill="#FFFFFF" height="51.2188" style="stroke:#DCDCDC;stroke-width:1.0;" width="536.8496" x="190" y="627.2969"/><line style="stroke:#DCDCDC;stroke-width:1.0;" x1="228" x2="228" y1="178.375" y2="695.5156"/><line style="stroke:#DCDCDC;stroke-width:1.0;" x1="324.5791" x2="324.5791" y1="178.375" y2="695.5156"/><line style="stroke:#DCDCDC;stroke-width:1.0;" x1="520.9473" x2="520.9473" y1="178.375" y2="695.5156"/><line style="stroke:#DCDCDC;stroke-width:1.0;" x1="603.1191" x2="603.1191" y1="178.375" y2="695.5156"/><line style="stroke:#DCDCDC;stroke-width:1.0;" x1="677.4775" x2="677.4775" y1="178.375" y2="695.5156"/><text fill="#000000" font-family="Helvetica" font-size="14" font-style="italic" lengthAdjust="spacing" textLength="45.1309" x="202.4346" y="157.6895">&#171;User&#187;</text><text fill="#000000" font-family="Helvetica" font-size="14" lengthAdjust="spacing" textLength="29.5586" x="210.2207" y="175.2988">User</text><ellipse cx="228" cy="98.1563" fill="#F7F7F7" rx="16" ry="16" style="stroke:#8FBC8F;stroke-width:1.0;"/><path d="M228,118.1563 C232,118.1563 235,118.1563 239,114.1563 C247,114.1563 255,122.1563 255,130.1563 L255,134.1563 C255,138.1563 251,142.1563 247,142.1563 L209,142.1563 C205,142.1563 201,138.1563 201,134.1563 L201,130.1563 C201,122.1563 209,114.1563 217,114.1563 C221,118.1563 224,118.1563 228,118.1563 " fill="#F7F7F7" style="stroke:#8FBC8F;stroke-width:1.0;"/><text fill="#000000" font-family="Helvetica" font-size="14" font-style="italic" lengthAdjust="spacing" textLength="59.1582" x="292.5791" y="157.6895">&#171;Python&#187;</text><text fill="#000000" font-family="Helvetica" font-size="14" lengthAdjust="spacing" textLength="24.9102" x="309.7031" y="175.2988">App</text><path d="M307.1582,107.1563 C307.1582,97.1563 325.1582,97.1563 325.1582,97.1563 C325.1582,97.1563 343.1582,97.1563 343.1582,107.1563 L343.1582,133.1563 C343.1582,143.1563 325.1582,143.1563 325.1582,143.1563 C325.1582,143.1563 307.1582,143.1563 307.1582,133.1563 L307.1582,107.1563 " fill="#F7F7F7" style="stroke:#8FBC8F;stroke-width:1.5;"/><path d="M307.1582,107.1563 C307.1582,117.1563 325.1582,117.1563 325.1582,117.1563 C325.1582,117.1563 343.1582,117.1563 343.1582,107.1563 " fill="none" style="stroke:#8FBC8F;stroke-width:1.5;"/><text fill="#000000" font-family="Helvetica" font-size="14" font-style="italic" lengthAdjust="spacing" textLength="59.917" x="488.5747" y="157.6895">&#171;Ollama&#187;</text><text fill="#000000" font-family="Helvetica" font-size="14" lengthAdjust="spacing" textLength="87.1719" x="474.9473" y="175.2988">Qwen2.5:1.5b</text><ellipse cx="521.5332" cy="127.1563" fill="#F7F7F7" rx="12" ry="12" style="stroke:#8FBC8F;stroke-width:1.0;"/><line style="stroke:#8FBC8F;stroke-width:1.0;" x1="509.5332" x2="533.5332" y1="141.1563" y2="141.1563"/><text fill="#000000" font-family="Helvetica" font-size="14" font-style="italic" lengthAdjust="spacing" textLength="44.3584" x="578.1191" y="157.6895">&#171;DAX&#187;</text><text fill="#000000" font-family="Helvetica" font-size="14" lengthAdjust="spacing" textLength="28.7861" x="585.9053" y="175.2988">DAX</text><path d="M585.2983,107.1563 C585.2983,97.1563 603.2983,97.1563 603.2983,97.1563 C603.2983,97.1563 621.2983,97.1563 621.2983,107.1563 L621.2983,133.1563 C621.2983,143.1563 603.2983,143.1563 603.2983,143.1563 C603.2983,143.1563 585.2983,143.1563 585.2983,133.1563 L585.2983,107.1563 " fill="#F7F7F7" style="stroke:#8FBC8F;stroke-width:1.5;"/><path d="M585.2983,107.1563 C585.2983,117.1563 603.2983,117.1563 603.2983,117.1563 C603.2983,117.1563 621.2983,117.1563 621.2983,107.1563 " fill="none" style="stroke:#8FBC8F;stroke-width:1.5;"/><text fill="#000000" font-family="Helvetica" font-size="14" font-style="italic" lengthAdjust="spacing" textLength="72.3721" x="638.4775" y="157.6895">&#171;Power BI&#187;</text><text fill="#000000" font-family="Helvetica" font-size="14" lengthAdjust="spacing" textLength="42.0205" x="653.6533" y="175.2988">Report</text><path d="M659.6636,107.1563 C659.6636,97.1563 677.6636,97.1563 677.6636,97.1563 C677.6636,97.1563 695.6636,97.1563 695.6636,107.1563 L695.6636,133.1563 C695.6636,143.1563 677.6636,143.1563 677.6636,143.1563 C677.6636,143.1563 659.6636,143.1563 659.6636,133.1563 L659.6636,107.1563 " fill="#F7F7F7" style="stroke:#8FBC8F;stroke-width:1.5;"/><path d="M659.6636,107.1563 C659.6636,117.1563 677.6636,117.1563 677.6636,117.1563 C677.6636,117.1563 695.6636,117.1563 695.6636,107.1563 " fill="none" style="stroke:#8FBC8F;stroke-width:1.5;"/><path d="M190,195.375 L280.1172,195.375 L280.1172,204.9844 L270.1172,214.9844 L190,214.9844 L190,195.375 " fill="#F7F7F7" style="stroke:#DCDCDC;stroke-width:1.0;"/><rect fill="none" height="51.2188" style="stroke:#DCDCDC;stroke-width:1.0;" width="177.7373" x="190" y="195.375"/><text fill="#000000" font-family="Helvetica" font-size="14" font-weight="bold" lengthAdjust="spacing" textLength="45.1172" x="205" y="210.9082">Initiate</text><polygon fill="#000000" points="313.1582,234.5938,323.1582,238.5938,313.1582,242.5938,317.1582,238.5938" style="stroke:#000000;stroke-width:1.0;"/><line style="stroke:#000000;stroke-width:1.0;" x1="228" x2="319.1582" y1="238.5938" y2="238.5938"/><text fill="#000000" font-family="Helvetica" font-size="14" lengthAdjust="spacing" textLength="73.1582" x="240" y="233.5176">Run run.bat</text><path d="M282.5791,260.5938 L383.5791,260.5938 L383.5791,270.2031 L373.5791,280.2031 L282.5791,280.2031 L282.5791,260.5938 " fill="#F7F7F7" style="stroke:#DCDCDC;stroke-width:1.0;"/><rect fill="none" height="51.2188" style="stroke:#DCDCDC;stroke-width:1.0;" width="355.8984" x="282.5791" y="260.5938"/><text fill="#000000" font-family="Helvetica" font-size="14" font-weight="bold" lengthAdjust="spacing" textLength="56" x="297.5791" y="276.127">Connect</text><polygon fill="#000000" points="591.2983,299.8125,601.2983,303.8125,591.2983,307.8125,595.2983,303.8125" style="stroke:#000000;stroke-width:1.0;"/><line style="stroke:#000000;stroke-width:1.0;" x1="325.1582" x2="597.2983" y1="303.8125" y2="303.8125"/><text fill="#000000" font-family="Helvetica" font-size="14" lengthAdjust="spacing" textLength="128.4131" x="400.0217" y="298.7363">Establish connection</text><path d="M282.5791,325.8125 L415.5098,325.8125 L415.5098,335.4219 L405.5098,345.4219 L282.5791,345.4219 L282.5791,325.8125 " fill="#F7F7F7" style="stroke:#DCDCDC;stroke-width:1.0;"/><rect fill="none" height="146.0469" style="stroke:#DCDCDC;stroke-width:1.0;" width="444.2705" x="282.5791" y="325.8125"/><text fill="#000000" font-family="Helvetica" font-size="14" font-weight="bold" lengthAdjust="spacing" textLength="87.9307" x="297.5791" y="341.3457">Retrieve data</text><polygon fill="#000000" points="665.6636,365.0313,675.6636,369.0313,665.6636,373.0313,669.6636,369.0313" style="stroke:#000000;stroke-width:1.0;"/><line style="stroke:#000000;stroke-width:1.0;" x1="325.1582" x2="671.6636" y1="369.0313" y2="369.0313"/><text fill="#000000" font-family="Helvetica" font-size="14" lengthAdjust="spacing" textLength="169.6475" x="416.5872" y="363.9551">Request classification table</text><polygon fill="#000000" points="336.1582,396.6406,326.1582,400.6406,336.1582,404.6406,332.1582,400.6406" style="stroke:#000000;stroke-width:1.0;"/><line style="stroke:#000000;stroke-width:1.0;stroke-dasharray:2.0,2.0;" x1="330.1582" x2="676.6636" y1="400.6406" y2="400.6406"/><text fill="#000000" font-family="Helvetica" font-size="14" lengthAdjust="spacing" textLength="159.5234" x="421.6492" y="395.5645">Return classification table</text><polygon fill="#000000" points="665.6636,428.25,675.6636,432.25,665.6636,436.25,669.6636,432.25" style="stroke:#000000;stroke-width:1.0;"/><line style="stroke:#000000;stroke-width:1.0;" x1="325.1582" x2="671.6636" y1="432.25" y2="432.25"/><text fill="#000000" font-family="Helvetica" font-size="14" lengthAdjust="spacing" textLength="117.5166" x="442.6526" y="427.1738">Retrieve data table</text><polygon fill="#000000" points="336.1582,459.8594,326.1582,463.8594,336.1582,467.8594,332.1582,463.8594" style="stroke:#000000;stroke-width:1.0;"/><line style="stroke:#000000;stroke-width:1.0;stroke-dasharray:2.0,2.0;" x1="330.1582" x2="676.6636" y1="463.8594" y2="463.8594"/><text fill="#000000" font-family="Helvetica" font-size="14" lengthAdjust="spacing" textLength="107.4063" x="447.7078" y="458.7832">Return data table</text><path d="M282.5791,485.8594 L413.9512,485.8594 L413.9512,495.4688 L403.9512,505.4688 L282.5791,505.4688 L282.5791,485.8594 " fill="#F7F7F7" style="stroke:#DCDCDC;stroke-width:1.0;"/><rect fill="none" height="127.4375" style="stroke:#DCDCDC;stroke-width:1.0;" width="295.54" x="282.5791" y="485.8594"/><text fill="#000000" font-family="Helvetica" font-size="14" font-weight="bold" lengthAdjust="spacing" textLength="86.3721" x="297.5791" y="501.3926">Classify data</text><line style="stroke:#000000;stroke-width:1.0;" x1="325.1582" x2="367.1582" y1="529.0781" y2="529.0781"/><line style="stroke:#000000;stroke-width:1.0;" x1="367.1582" x2="367.1582" y1="529.0781" y2="542.0781"/><line style="stroke:#000000;stroke-width:1.0;" x1="326.1582" x2="367.1582" y1="542.0781" y2="542.0781"/><polygon fill="#000000" points="336.1582,538.0781,326.1582,542.0781,336.1582,546.0781,332.1582,542.0781" style="stroke:#000000;stroke-width:1.0;"/><text fill="#000000" font-family="Helvetica" font-size="14" lengthAdjust="spacing" textLength="93.4063" x="332.1582" y="524.002">Loop over data</text><polygon fill="#000000" points="509.5332,569.6875,519.5332,573.6875,509.5332,577.6875,513.5332,573.6875" style="stroke:#000000;stroke-width:1.0;"/><line style="stroke:#000000;stroke-width:1.0;" x1="325.1582" x2="515.5332" y1="573.6875" y2="573.6875"/><text fill="#000000" font-family="Helvetica" font-size="14" lengthAdjust="spacing" textLength="172.375" x="337.1582" y="568.6113">Send classifications + value</text><polygon fill="#000000" points="336.1582,601.2969,326.1582,605.2969,336.1582,609.2969,332.1582,605.2969" style="stroke:#000000;stroke-width:1.0;"/><line style="stroke:#000000;stroke-width:1.0;stroke-dasharray:2.0,2.0;" x1="330.1582" x2="520.5332" y1="605.2969" y2="605.2969"/><text fill="#000000" font-family="Helvetica" font-size="14" lengthAdjust="spacing" textLength="125.2754" x="360.708" y="600.2207">Return classification</text><path d="M190,627.2969 L287.1309,627.2969 L287.1309,636.9063 L277.1309,646.9063 L190,646.9063 L190,627.2969 " fill="#F7F7F7" style="stroke:#DCDCDC;stroke-width:1.0;"/><rect fill="none" height="51.2188" style="stroke:#DCDCDC;stroke-width:1.0;" width="536.8496" x="190" y="627.2969"/><text fill="#000000" font-family="Helvetica" font-size="14" font-weight="bold" lengthAdjust="spacing" textLength="52.1309" x="205" y="642.8301">Refresh</text><polygon fill="#000000" points="665.6636,666.5156,675.6636,670.5156,665.6636,674.5156,669.6636,670.5156" style="stroke:#000000;stroke-width:1.0;"/><line style="stroke:#000000;stroke-width:1.0;" x1="228" x2="671.6636" y1="670.5156" y2="670.5156"/><text fill="#000000" font-family="Helvetica" font-size="14" lengthAdjust="spacing" textLength="89.4824" x="408.0906" y="665.4395">Refresh report</text><text fill="#A9A9A9" font-family="Helvetica" font-size="14" lengthAdjust="spacing" textLength="199.2607" x="536.5889" y="731.0488">Created on 09-22-2025 at 20:13</text><!--SRC=[ZPF1Rk8m48RlFCMK2uUgYRfIBwX2IYbI8sKX3K5gZoOCZRN6pjfZMjw-nWIIqbJ5fsWyt_p_Z2VX0EBfE5ayJc0GzdhWpXMNXR0hX208DHfbTO4ch0IJP3V2XTQeKRfOG1zq2K4bRl3IP4CxKPVkXGEOvwz9OwtaZhDISFaFLqrahHGjrOS7yZXl0SH984IM58m5CuQlUS68AmcfLaxNU2QDiZmUnsaqpUSdb1MaD1nEVs5Gz-5qc875V9Bvx_lx_ULevA4L8xPa1ZqKLLMBsKFfQ_uqcteetL6fP8sXT4PtjTRpEye_mTtmDhXRzZqsIvBeR-IncH1imxhK7gENCpKNWTgY- -nYCgoKfdxRuKFyKZEfUaSD3x433oynIPlfl6bbAuWb9yu8UySAVYetesEZGyYi16rbi6HKTxfg5nWhAR6W4rzphiBU_10cnhaLt9HG73BTqtNLoP0qnotwzZgg-RQS6_nlqH0KNtTXhz7qu7DllZI1PBNyXVgkrR9qgSHPxlcq3WPsFtPvh9OeLO7QkkVx8RFUg27CdSHPOmQkOSk4RUpMsR_FfFjfrkutBx-lo75C_XgqNyLJWKy0]--></g></svg>